# xmcd
#
# Track frame offsets:
#      150
#      15563
#      28113
#      42474
#      60026
#      71643
#      85147
#      97007
#      112016
#      127617
#      143399
# 
# Disc length: 1998 seconds
#
# Revision: 2
# Processed by: cddbd v1.4PL0 Copyright (c) Steve Scherf et al.
#
# Submitted via: FreeRIP 1.21
#
DISCID=8407cc0b
DTITLE=Barbara Bailey Hutchison - Portrait
DYEAR=1900
DGENRE=Folk
TTITLE0=Wind take my heart
TTITLE1=Take it from me
TTITLE2=Season of the heart
TTITLE3=Into a mall
TTITLE4=Don't let me down
TTITLE5=Is it love
TTITLE6=You decide
TTITLE7=I'm backin' up
TTITLE8=It's only lonely sometimes
TTITLE9=Spirit of the heart
TTITLE10=Wind take my heart - Reprise
EXTD=
EXTT0=
EXTT1=
EXTT2=
EXTT3=
EXTT4=
EXTT5=
EXTT6=
EXTT7=
EXTT8=
EXTT9=
EXTT10=
PLAYORDER=
